<svg display="inline" height="16" width="16" xmlns="http://www.w3.org/2000/svg" xmlns:sodipodi="http://sodipodi.sourceforge.net/DTD/sodipodi-0.dtd" xmlns:inkscape="http://www.inkscape.org/namespaces/inkscape">
 <g inkscape:label="Icon" inkscape:groupmode="layer" transform="matrix(1 0 0 1 0 -6)">
  <path d="M 8 0 L 7 3 L 9 3 L 8 0 z M 2.34375 2.34375 L 3.75 5.15625 L 5.15625 3.75 L 2.34375 2.34375 z M 13.65625 2.34375 L 10.84375 3.75 L 12.25 5.15625 L 13.65625 2.34375 z M 8 4 C 5.790861 4 4 5.790861 4 8 C 4 10.209139 5.790861 12 8 12 C 10.209139 12 12 10.209139 12 8 C 12 5.790861 10.209139 4 8 4 z M 8 5.5 C 9.3807119 5.5 10.5 6.6192881 10.5 8 C 10.5 9.3807119 9.3807119 10.5 8 10.5 C 6.6192881 10.5 5.5 9.3807119 5.5 8 C 5.5 6.6192881 6.6192881 5.5 8 5.5 z M 3 7 L 0 8 L 3 9 L 3 7 z M 13 7 L 13 9 L 16 8 L 13 7 z M 3.75 10.84375 L 2.34375 13.65625 L 5.15625 12.25 L 3.75 10.84375 z M 12.25 10.84375 L 10.84375 12.25 L 13.65625 13.65625 L 12.25 10.84375 z M 7 13 L 8 16 L 9 13 L 7 13 z " stroke-width="1.5" fill="#cccccc" color="#000000" fill-opacity="1" fill-rule="nonzero" stroke="none" opacity="1" visibility="visible" transform="matrix(1 0 0 1 0 6)"/>
  <path d="m 8,30 c -2.209139,0 -4,1.790861 -4,4 0,2.209139 1.790861,4 4,4 2.209139,0 4,-1.790861 4,-4 0,-2.209139 -1.790861,-4 -4,-4 z m 0,2 c 1.1045695,0 2,0.89543 2,2 0,1.104569 -0.8954305,2 -2,2 -1.1045695,0 -2,-0.895431 -2,-2 0,-1.10457 0.8954305,-2 2,-2 z" stroke-width="1.5" fill="#000000" color="#000000" fill-opacity="1" fill-rule="nonzero" stroke="none" opacity="0.35" visibility="visible" inkscape:connector-curvature="0"/>
  <path d="m 6,29 4,0 -2,-3 z" fill="#808080" stroke="none" sodipodi:nodetypes="cccc" inkscape:transform-center-y="-6.5" inkscape:connector-curvature="0"/>
  <path d="m 11.330127,29.767949 2,3.464102 L 14.928204,30 z" fill="#808080" stroke="none" sodipodi:nodetypes="cccc" inkscape:transform-center-x="-5.1291655" inkscape:transform-center-y="-2.4999999" inkscape:connector-curvature="0"/>
  <path d="m 13.330127,34.767949 -2,3.464102 L 14.928203,38 z" fill="#808080" stroke="none" sodipodi:nodetypes="cccc" inkscape:transform-center-x="-5.129165" inkscape:transform-center-y="2.5" inkscape:connector-curvature="0"/>
  <path d="m 10,39 -4.0000002,0 2.0000001,3 z" fill="#808080" stroke="none" sodipodi:nodetypes="cccc" inkscape:transform-center-y="6.5" inkscape:connector-curvature="0"/>
  <path d="M 4.6698729,38.232051 2.6698728,34.767949 1.0717967,38 z" fill="#808080" stroke="none" sodipodi:nodetypes="cccc" inkscape:transform-center-x="5.1291651" inkscape:transform-center-y="2.5" inkscape:connector-curvature="0"/>
  <path d="M 2.6698727,33.232051 4.669873,29.767949 1.0717967,30 z" fill="#808080" stroke="none" sodipodi:nodetypes="cccc" inkscape:transform-center-x="5.129165" inkscape:transform-center-y="-2.5" inkscape:connector-curvature="0"/>
 </g>
</svg>
